<svg
	xmlns="http://www.w3.org/2000/svg"
	fill="none"
	viewBox="0 0 18 18"
>
	<path
		fill="currentColor"
		d="M1 8.737.303 8.46l-.11.276.11.276L1 8.737Zm16 0 .697.276.11-.276-.11-.276-.697.276Zm-15.303.276C3.401 4.709 6.291 2.75 9 2.75c2.71 0 5.599 1.959 7.303 6.263l1.394-.552C15.845 3.782 12.513 1.25 9 1.25c-3.513 0-6.845 2.532-8.697 7.21l1.394.553Zm-1.394 0c1.852 4.678 5.184 7.21 8.697 7.21 3.513 0 6.845-2.532 8.697-7.21l-1.394-.552c-1.704 4.304-4.594 6.263-7.303 6.263-2.71 0-5.599-1.96-7.303-6.263l-1.394.552Z"
	/>
	<circle
		cx="9.18"
		cy="8.737"
		r="2.887"
		stroke="currentColor"
		stroke-width="1.5"
	/>
</svg>
