<svg
	xmlns="http://www.w3.org/2000/svg"
	fill="none"
	viewBox="0 0 18 18"
>
	<path
		stroke="currentColor"
		stroke-width="1.5"
		d="M14.482 3.412A3 3 0 0 0 11.541 1H6.459a3 3 0 0 0-2.941 2.412l-1.362 6.807a3 3 0 0 0 .096 1.537l1.064 3.193A3 3 0 0 0 6.162 17h5.676a3 3 0 0 0 2.846-2.051l1.064-3.193a3 3 0 0 0 .096-1.537l-1.362-6.807Z"
	/>
	<path
		stroke="currentColor"
		stroke-linecap="round"
		stroke-width="1.5"
		d="M3 11h1.592a2 2 0 0 1 1.506.683l.554.634A2 2 0 0 0 8.158 13h1.684a2 2 0 0 0 1.506-.683l.554-.634A2 2 0 0 1 13.408 11H15M6.5 5h5m-6 3h7"
	/>
</svg>
