<svg
	xmlns="http://www.w3.org/2000/svg"
	fill="none"
	viewBox="0 0 18 18"
>
	<path
		fill="currentColor"
		d="M5.378 8.801 4.69 9.1l.688-.298Zm0 .398.688.298-.688-.298ZM3.31 16.244l-.375-.65.375.65Zm-.709-.632-.688-.298.688.298Zm12.505-7.045.375-.65-.375.65Zm0 .866-.375-.65.375.65Zm.375-1.516L3.685 1.107l-.75 1.299 11.796 6.81.75-1.299ZM3.685 16.893l11.796-6.81-.75-1.3-11.796 6.811.75 1.3ZM1.913 2.686 4.69 9.099l1.376-.596L3.29 2.09l-1.376.596ZM4.69 8.9l-2.777 6.413 1.376.596 2.777-6.413L4.69 8.9Zm0 .198a.25.25 0 0 1 0-.198l1.376.596a1.25 1.25 0 0 0 0-.994L4.69 9.1Zm-1.755 6.495a.25.25 0 0 1 .354.316l-1.376-.596c-.479 1.105.729 2.181 1.772 1.58l-.75-1.3Zm.75-14.487c-1.043-.602-2.25.474-1.772 1.579l1.376-.596a.25.25 0 0 1-.354.316l.75-1.3Zm11.046 8.11a.25.25 0 0 1 0-.434l.75 1.3a1.25 1.25 0 0 0 0-2.166l-.75 1.3Z"
	/>
	<path
		stroke="currentColor"
		stroke-linecap="round"
		stroke-width="1.5"
		d="M5.464 9h3.464"
	/>
</svg>
