<svg
	xmlns="http://www.w3.org/2000/svg"
	fill="none"
	viewBox="0 0 18 18"
>
	<path
		fill="currentColor"
		d="M15.792 8.521a.75.75 0 0 0-1.5 0h1.5ZM13.21 5.156a.75.75 0 0 0 1.218-.875l-1.218.875Zm1.082 3.365a5.771 5.771 0 0 1-5.771 5.771v1.5a7.271 7.271 0 0 0 7.271-7.271h-1.5Zm-5.771 5.771A5.771 5.771 0 0 1 2.75 8.521h-1.5a7.271 7.271 0 0 0 7.271 7.271v-1.5ZM2.75 8.521A5.771 5.771 0 0 1 8.521 2.75v-1.5A7.271 7.271 0 0 0 1.25 8.521h1.5ZM8.521 2.75c1.93 0 3.64.948 4.69 2.406l1.217-.875A7.263 7.263 0 0 0 8.521 1.25v1.5Z"
	/>
	<path
		fill="currentColor"
		d="m14.39 5.353-.01.75a.75.75 0 0 0 .74-.575l-.73-.175Zm-2.598-.787a.75.75 0 1 0-.021 1.5l.021-1.5ZM15.73 2.99a.75.75 0 0 0-1.459-.35l1.459.35Zm-1.327 1.613-2.61-.037-.021 1.5 2.61.037.02-1.5ZM14.27 2.64l-.608 2.538 1.458.35.609-2.538-1.459-.35Z"
	/>
</svg>
